<?xml version="1.0" encoding="UTF-8"?>
<svg xmlns="http://www.w3.org/2000/svg" xmlns:xlink="http://www.w3.org/1999/xlink" viewBox="0 0 728.4 720.3">
  <defs>
    <style>
      .cls-1 {
        fill: #399;
        filter: url(#outer-glow-1);
      }

      .cls-1, .cls-2, .cls-3, .cls-4, .cls-5, .cls-6, .cls-7 {
        stroke-miterlimit: 10;
      }

      .cls-1, .cls-2, .cls-3, .cls-7 {
        stroke-width: 2px;
      }

      .cls-1, .cls-2, .cls-5, .cls-6, .cls-7 {
        stroke: #000;
      }

      .cls-2 {
        fill: #fbb03b;
        filter: url(#outer-glow-2);
      }

      .cls-3 {
        fill: #e6e6e6;
        stroke: #f2f2f2;
      }

      .cls-4 {
        stroke: #e6e6e6;
        stroke-width: 5px;
      }

      .cls-5 {
        fill: none;
        stroke-width: 4px;
      }

      .cls-6 {
        fill: #d8d1ce;
        stroke-width: 3px;
      }

      .cls-7 {
        fill: #ba9bc9;
        filter: url(#outer-glow-3);
      }
    </style>
    <filter id="outer-glow-1" filterUnits="userSpaceOnUse">
      <feOffset dx="0" dy="0"/>
      <feGaussianBlur result="blur" stdDeviation="20"/>
      <feFlood flood-color="#a0f9ee" flood-opacity=".75"/>
      <feComposite in2="blur" operator="in"/>
      <feComposite in="SourceGraphic"/>
    </filter>
    <filter id="outer-glow-2" filterUnits="userSpaceOnUse">
      <feOffset dx="0" dy="0"/>
      <feGaussianBlur result="blur-2" stdDeviation="20"/>
      <feFlood flood-color="#ff9" flood-opacity=".75"/>
      <feComposite in2="blur-2" operator="in"/>
      <feComposite in="SourceGraphic"/>
    </filter>
    <filter id="outer-glow-3" filterUnits="userSpaceOnUse">
      <feOffset dx="0" dy="0"/>
      <feGaussianBlur result="blur-3" stdDeviation="20"/>
      <feFlood flood-color="#fcf" flood-opacity=".75"/>
      <feComposite in2="blur-3" operator="in"/>
      <feComposite in="SourceGraphic"/>
    </filter>
  </defs>
  <g id="triangle">
    <g>
      <polygon class="cls-6" points="364.28 61.8 63.28 541.8 665.28 541.8 364.28 61.8"/>
      <line class="cls-5" x1="364" y1="62.2" x2="369" y2="375.8"/>
      <line class="cls-5" x1="63" y1="541.4" x2="369" y2="375.8"/>
      <line class="cls-5" x1="666" y1="541.4" x2="369" y2="375.8"/>
    </g>
    <ellipse class="cls-4" cx="370" cy="389.8" rx="348" ry="328"/>
  </g>
  <g id="side1">
    <path class="cls-1" d="M664.5,540.3s4.75-10.95,2-16c-4.82-8.87-21.4-4.24-25-11-5.62-10.56,29.33-32.15,25-44-5.86-16.04-78.86-.95-81-10-1.53-6.47,34.43-19.65,33-24-1.5-4.56-41.16,9.53-47,0-8.3-13.55,61.14-59.5,53-77-10.21-21.95-133.66,19.76-138,8-4.62-12.5,129.72-73.71,127-80-2.47-5.73-115.01,42.36-125,25-8.1-14.07,59.04-57.28,49-80-10.41-23.57-94.75-4.51-97-15-2.27-10.6,82.47-36.83,81-42-1.63-5.73-106.88,22.67-112,9-3.23-8.63,35.36-28.9,32-36-3.57-7.53-49.74,9.37-52,4-2.83-6.71,65.42-41.9,63-47-1.42-2.99-25.51,7.84-59,4-15.1-1.73-18.97-4.94-20-8-3.12-9.29,18.83-20.66,16-30-1.19-3.92-6.84-7.84-25-9l4.5,314.5,295.5,164.5Z"/>
  </g>
  <g id="side2">
    <path class="cls-2" d="M66,540.8c-3,1-2.64.92-3,1,0,0,3.01-1,3-1-.33.07,0,0,0,0l303-165-4.99-313.99c-12.17-1.03-25.55-1.05-27.21,4.09-2.41,7.46,21.56,20.58,19.44,25.53-2.76,6.44-45.26-10.89-48.6-4.09-3.87,7.88,48.58,40.44,44.71,49.02-4.45,9.87-76.8-26.4-89.42-8.17-13.21,19.08,49.49,82.8,37.91,97.02-9.52,11.69-59.92-21.36-65.12-13.28-6.08,9.44,60.23,58.25,52.48,74.55-9.1,19.17-114.51-19.34-117.6-10.21-2.76,8.14,79.49,43.73,75.81,56.17-3.49,11.78-79.51-12.52-93.31,13.28-10.41,19.48,22.15,53.51,10.69,67.41-9.08,11-36.57-1.77-38.88,4.09-3.06,7.77,44.74,31.58,41.79,40.85-3.64,11.44-81.07-10.59-86.5,4.09-4.14,11.18,36.56,35.46,32.07,44.94-3.92,8.29-40.14-2.68-40.82,4.09-4.94,6.66-16.93,29.42-5.46,29.62.22,0-2.77.84-3,1"/>
  </g>
  <g id="side3">
    <path class="cls-7" d="M63,541.8c5.04,10.53,13.21,24.66,22,24,14.89-1.12,21.01-43.89,28-43,8.24,1.05,5.02,61.1,12,62,8.19,1.05,19.3-80.69,37-81,15.75-.27,16.2,64.31,46,73,35.46,10.34,79.22-68.14,102-57,16.53,8.09,7.47,56.28,13,57,7.55.99,20.72-89.37,34-89,14.25.4,17.1,105.05,34,106,15.64.88,32.22-87.73,43-86,7.36,1.18,2.17,42.95,15,47,14.97,4.72,34.98-48.05,55-45,25.23,3.84,26.78,92.72,41,93,14.13.28,20.89-87.26,39-88,17.56-.72,32.53,80.71,43,79,8.79-1.44,4.49-59.88,13-61,7.11-.93,16.38,39.02,22,38,3.26-.59,3.58-14.7,3-30l-296-165L63,541.8Z"/>
  </g>
  <g id="center">
    <path class="cls-3" d="M358,61.8c-.18,21.16-.1,38.32,0,50,.2,22.58,1.89,28.38,0,42-1.98,14.29-4.67,17.94-4,29,.85,14.16,5.83,17.84,9,31,4.13,17.16,1.83,36.5-5,50-9.93,19.63-22.32,14.47-42,34-26.81,26.61-30.39,68.28-32,87-1.77,20.64,1.79,21.51-2,30-10.92,24.46-41.1,18.68-90,42-40.57,19.35-30.96,28.65-74,48-27.04,12.15-55.19,19.43-56,34-.02.42-.25,5.82,3,8,6.39,4.28,19.43-8.4,40-22,22.27-14.72,23.8-10.97,52-28,26.74-16.15,24.72-19.13,42-29,8.73-4.98,43.23-24.17,85-23,38.32,1.07,38.93,18.05,74,19,43.31,1.18,48.44-24.54,88-25,19.59-.23,15.16,6.12,107,49,60.63,28.31,65.48,26.9,82,41,9.6,8.19,23.37,21.81,30,18,3.94-2.26,5.13-10.55,2-15-2.9-4.13-8.07-2.9-15-5-11.8-3.57-14.75-12.56-24-21-9.79-8.93-17.96-9.33-35-15-12.75-4.24-34.5-16.49-78-41-25.15-14.17-37.67-21.36-39-23-26.23-32.31,6.67-71.16-20-112-5.6-8.57-17.96-23.56-37-34-22.88-12.54-35.36-8.36-42-20-8.84-15.48,9.68-29.84,1-56-3.98-12-8.91-12.08-11-24-2.25-12.84,2.6-17.72,6-38,2.09-12.46-.25-9.27,2-40,1.99-27.14,3.79-36.86-2-41-4.3-3.07-10.66-1.56-15,0Z"/>
  </g>
</svg>